<svg width="512" height="512" viewBox="0 0 512 512" fill="none" xmlns="http://www.w3.org/2000/svg">
<rect width="512" height="512" fill="white"/>
<path d="M291.269 222.312C348.262 216.056 393.294 170.338 398.519 113H393.5C340.769 113 295.875 146.756 279.306 193.781C273.256 182.231 265.969 171.369 257.581 161.4C283.569 113 334.719 80 393.5 80H410C422.169 80 432 89.8312 432 102C432 180.1 373.837 244.587 298.487 254.625C297.044 243.488 294.637 232.694 291.269 222.244V222.312ZM113 157V168C113 234.825 167.175 289 234 289H239.5V278C239.5 211.175 185.325 157 118.5 157H113ZM272.5 278V289V322V415.5C272.5 424.644 265.144 432 256 432C246.856 432 239.5 424.644 239.5 415.5V322H234C148.956 322 80 253.044 80 168V146C80 133.831 89.8312 124 102 124H118.5C203.544 124 272.5 192.956 272.5 278Z" fill="black"/>
</svg>
