<svg width="512" height="512" viewBox="0 0 512 512" fill="none" xmlns="http://www.w3.org/2000/svg">
<g clip-path="url(#clip0_104_17)">
<mask id="mask0_104_17" style="mask-type:alpha" maskUnits="userSpaceOnUse" x="0" y="0" width="512" height="512">
<rect width="512" height="512" rx="256" fill="white"/>
</mask>
<g mask="url(#mask0_104_17)">
<rect width="512" height="512" fill="white"/>
<path fill-rule="evenodd" clip-rule="evenodd" d="M255.36 128H256V0H255.36V128Z" fill="url(#paint0_radial_104_17)" fill-opacity="0.03"/>
<path fill-rule="evenodd" clip-rule="evenodd" d="M255.36 256H256V128H255.36V256Z" fill="url(#paint1_radial_104_17)" fill-opacity="0.03"/>
<path fill-rule="evenodd" clip-rule="evenodd" d="M255.36 384H256V256H255.36V384Z" fill="url(#paint2_radial_104_17)" fill-opacity="0.03"/>
<path fill-rule="evenodd" clip-rule="evenodd" d="M255.36 512H256V384H255.36V512Z" fill="url(#paint3_radial_104_17)" fill-opacity="0.03"/>
<path fill-rule="evenodd" clip-rule="evenodd" d="M256 128H320V0H319.36V126.72H256V128Z" fill="url(#paint4_radial_104_17)" fill-opacity="0.03"/>
<path fill-rule="evenodd" clip-rule="evenodd" d="M256 256H320V128H319.36V254.72H256V256Z" fill="url(#paint5_radial_104_17)" fill-opacity="0.03"/>
<path fill-rule="evenodd" clip-rule="evenodd" d="M256 384H320V256H319.36V382.72H256V384Z" fill="url(#paint6_radial_104_17)" fill-opacity="0.03"/>
<path fill-rule="evenodd" clip-rule="evenodd" d="M319.36 512H320V384H319.36V512Z" fill="url(#paint7_radial_104_17)" fill-opacity="0.03"/>
<path fill-rule="evenodd" clip-rule="evenodd" d="M320 128H384V0H383.36V126.72H320V128Z" fill="url(#paint8_radial_104_17)" fill-opacity="0.03"/>
<path fill-rule="evenodd" clip-rule="evenodd" d="M384 128H448V0H447.36V126.72H384V128Z" fill="url(#paint9_radial_104_17)" fill-opacity="0.03"/>
<path fill-rule="evenodd" clip-rule="evenodd" d="M320 256H384V128H383.36V254.72H320V256Z" fill="url(#paint10_radial_104_17)" fill-opacity="0.03"/>
<path fill-rule="evenodd" clip-rule="evenodd" d="M384 256H448V128H447.36V254.72H384V256Z" fill="url(#paint11_radial_104_17)" fill-opacity="0.03"/>
<path fill-rule="evenodd" clip-rule="evenodd" d="M320 384H384V256H383.36V382.72H320V384Z" fill="url(#paint12_radial_104_17)" fill-opacity="0.03"/>
<path fill-rule="evenodd" clip-rule="evenodd" d="M384 384H448V256H447.36V382.72H384V384Z" fill="url(#paint13_radial_104_17)" fill-opacity="0.03"/>
<path fill-rule="evenodd" clip-rule="evenodd" d="M383.36 512H384V384H383.36V512Z" fill="url(#paint14_radial_104_17)" fill-opacity="0.03"/>
<path fill-rule="evenodd" clip-rule="evenodd" d="M447.36 512H448V384H447.36V512Z" fill="url(#paint15_radial_104_17)" fill-opacity="0.03"/>
<path fill-rule="evenodd" clip-rule="evenodd" d="M448 126.72V128H512V126.72H448Z" fill="url(#paint16_radial_104_17)" fill-opacity="0.03"/>
<path fill-rule="evenodd" clip-rule="evenodd" d="M448 254.72V256H512V254.72H448Z" fill="url(#paint17_radial_104_17)" fill-opacity="0.03"/>
<path fill-rule="evenodd" clip-rule="evenodd" d="M448 382.72V384H512V382.72H448Z" fill="url(#paint18_radial_104_17)" fill-opacity="0.03"/>
<path fill-rule="evenodd" clip-rule="evenodd" d="M0 128H64V0H63.36V126.72H0V128Z" fill="url(#paint19_radial_104_17)" fill-opacity="0.03"/>
<path fill-rule="evenodd" clip-rule="evenodd" d="M0 256H64V128H63.36V254.72H0V256Z" fill="url(#paint20_radial_104_17)" fill-opacity="0.03"/>
<path fill-rule="evenodd" clip-rule="evenodd" d="M0 384H64V256H63.36V382.72H0V384Z" fill="url(#paint21_radial_104_17)" fill-opacity="0.03"/>
<path fill-rule="evenodd" clip-rule="evenodd" d="M63.36 512H64V384H63.36V512Z" fill="url(#paint22_radial_104_17)" fill-opacity="0.03"/>
<path fill-rule="evenodd" clip-rule="evenodd" d="M64 128H128V0H127.36V126.72H64V128Z" fill="url(#paint23_radial_104_17)" fill-opacity="0.03"/>
<path fill-rule="evenodd" clip-rule="evenodd" d="M64 256H128V128H127.36V254.72H64V256Z" fill="url(#paint24_radial_104_17)" fill-opacity="0.03"/>
<path fill-rule="evenodd" clip-rule="evenodd" d="M64 384H128V256H127.36V382.72H64V384Z" fill="url(#paint25_radial_104_17)" fill-opacity="0.03"/>
<path fill-rule="evenodd" clip-rule="evenodd" d="M127.36 512H128V384H127.36V512Z" fill="url(#paint26_radial_104_17)" fill-opacity="0.03"/>
<path fill-rule="evenodd" clip-rule="evenodd" d="M128 128H192V0H191.36V126.72H128V128Z" fill="url(#paint27_radial_104_17)" fill-opacity="0.03"/>
<path fill-rule="evenodd" clip-rule="evenodd" d="M128 256H192V128H191.36V254.72H128V256Z" fill="url(#paint28_radial_104_17)" fill-opacity="0.03"/>
<path fill-rule="evenodd" clip-rule="evenodd" d="M128 384H192V256H191.36V382.72H128V384Z" fill="url(#paint29_radial_104_17)" fill-opacity="0.03"/>
<path fill-rule="evenodd" clip-rule="evenodd" d="M191.36 512H192V384H191.36V512Z" fill="url(#paint30_radial_104_17)" fill-opacity="0.03"/>
<path fill-rule="evenodd" clip-rule="evenodd" d="M192 126.72V128H256V126.72H192Z" fill="url(#paint31_radial_104_17)" fill-opacity="0.03"/>
<path fill-rule="evenodd" clip-rule="evenodd" d="M192 254.72V256H256V254.72H192Z" fill="url(#paint32_radial_104_17)" fill-opacity="0.03"/>
<path fill-rule="evenodd" clip-rule="evenodd" d="M192 382.72V384H256V382.72H192Z" fill="url(#paint33_radial_104_17)" fill-opacity="0.03"/>
<path d="M404.787 127.449C410.404 121.832 410.404 112.748 404.787 107.191C399.17 101.633 390.086 101.573 384.528 107.191L303.195 188.404L295.486 180.695C283.415 168.624 264.77 165.994 249.89 174.301L112.801 250.495C106.765 253.841 103 260.236 103 267.168C103 272.247 105.032 277.088 108.558 280.673L231.304 403.36C234.89 406.946 239.73 408.918 244.81 408.918C251.742 408.918 258.136 405.153 261.483 399.117L337.617 262.028C345.924 247.088 343.294 228.503 331.223 216.432L323.514 208.723L404.787 127.449ZM296.383 277.207L242.599 374.078L184.871 316.35L195.628 284.139C196.883 280.375 193.297 276.849 189.592 278.104L157.322 288.801L137.9 269.379L234.77 215.595L296.383 277.207Z" fill="black"/>
</g>
</g>
<defs>
<radialGradient id="paint0_radial_104_17" cx="0" cy="0" r="1" gradientUnits="userSpaceOnUse" gradientTransform="translate(511.36 256) rotate(180) scale(511.36 2045.44)">
<stop offset="0.25" stop-color="#0D0D0D"/>
<stop offset="0.49975" stop-color="#0D0D0D" stop-opacity="0.75"/>
<stop offset="0.75" stop-color="#0D0D0D"/>
</radialGradient>
<radialGradient id="paint1_radial_104_17" cx="0" cy="0" r="1" gradientUnits="userSpaceOnUse" gradientTransform="translate(511.36 256) rotate(180) scale(511.36 2045.44)">
<stop offset="0.25" stop-color="#0D0D0D"/>
<stop offset="0.49975" stop-color="#0D0D0D" stop-opacity="0.75"/>
<stop offset="0.75" stop-color="#0D0D0D"/>
</radialGradient>
<radialGradient id="paint2_radial_104_17" cx="0" cy="0" r="1" gradientUnits="userSpaceOnUse" gradientTransform="translate(511.36 256) rotate(180) scale(511.36 2045.44)">
<stop offset="0.25" stop-color="#0D0D0D"/>
<stop offset="0.49975" stop-color="#0D0D0D" stop-opacity="0.75"/>
<stop offset="0.75" stop-color="#0D0D0D"/>
</radialGradient>
<radialGradient id="paint3_radial_104_17" cx="0" cy="0" r="1" gradientUnits="userSpaceOnUse" gradientTransform="translate(511.36 256) rotate(180) scale(511.36 2045.44)">
<stop offset="0.25" stop-color="#0D0D0D"/>
<stop offset="0.49975" stop-color="#0D0D0D" stop-opacity="0.75"/>
<stop offset="0.75" stop-color="#0D0D0D"/>
</radialGradient>
<radialGradient id="paint4_radial_104_17" cx="0" cy="0" r="1" gradientUnits="userSpaceOnUse" gradientTransform="translate(511.36 256) rotate(180) scale(511.36 2045.44)">
<stop offset="0.25" stop-color="#0D0D0D"/>
<stop offset="0.49975" stop-color="#0D0D0D" stop-opacity="0.75"/>
<stop offset="0.75" stop-color="#0D0D0D"/>
</radialGradient>
<radialGradient id="paint5_radial_104_17" cx="0" cy="0" r="1" gradientUnits="userSpaceOnUse" gradientTransform="translate(511.36 256) rotate(180) scale(511.36 2045.44)">
<stop offset="0.25" stop-color="#0D0D0D"/>
<stop offset="0.49975" stop-color="#0D0D0D" stop-opacity="0.75"/>
<stop offset="0.75" stop-color="#0D0D0D"/>
</radialGradient>
<radialGradient id="paint6_radial_104_17" cx="0" cy="0" r="1" gradientUnits="userSpaceOnUse" gradientTransform="translate(511.36 256) rotate(180) scale(511.36 2045.44)">
<stop offset="0.25" stop-color="#0D0D0D"/>
<stop offset="0.49975" stop-color="#0D0D0D" stop-opacity="0.75"/>
<stop offset="0.75" stop-color="#0D0D0D"/>
</radialGradient>
<radialGradient id="paint7_radial_104_17" cx="0" cy="0" r="1" gradientUnits="userSpaceOnUse" gradientTransform="translate(511.36 256) rotate(180) scale(511.36 2045.44)">
<stop offset="0.25" stop-color="#0D0D0D"/>
<stop offset="0.49975" stop-color="#0D0D0D" stop-opacity="0.75"/>
<stop offset="0.75" stop-color="#0D0D0D"/>
</radialGradient>
<radialGradient id="paint8_radial_104_17" cx="0" cy="0" r="1" gradientUnits="userSpaceOnUse" gradientTransform="translate(511.36 256) rotate(180) scale(511.36 2045.44)">
<stop offset="0.25" stop-color="#0D0D0D"/>
<stop offset="0.49975" stop-color="#0D0D0D" stop-opacity="0.75"/>
<stop offset="0.75" stop-color="#0D0D0D"/>
</radialGradient>
<radialGradient id="paint9_radial_104_17" cx="0" cy="0" r="1" gradientUnits="userSpaceOnUse" gradientTransform="translate(511.36 256) rotate(180) scale(511.36 2045.44)">
<stop offset="0.25" stop-color="#0D0D0D"/>
<stop offset="0.49975" stop-color="#0D0D0D" stop-opacity="0.75"/>
<stop offset="0.75" stop-color="#0D0D0D"/>
</radialGradient>
<radialGradient id="paint10_radial_104_17" cx="0" cy="0" r="1" gradientUnits="userSpaceOnUse" gradientTransform="translate(511.36 256) rotate(180) scale(511.36 2045.44)">
<stop offset="0.25" stop-color="#0D0D0D"/>
<stop offset="0.49975" stop-color="#0D0D0D" stop-opacity="0.75"/>
<stop offset="0.75" stop-color="#0D0D0D"/>
</radialGradient>
<radialGradient id="paint11_radial_104_17" cx="0" cy="0" r="1" gradientUnits="userSpaceOnUse" gradientTransform="translate(511.36 256) rotate(180) scale(511.36 2045.44)">
<stop offset="0.25" stop-color="#0D0D0D"/>
<stop offset="0.49975" stop-color="#0D0D0D" stop-opacity="0.75"/>
<stop offset="0.75" stop-color="#0D0D0D"/>
</radialGradient>
<radialGradient id="paint12_radial_104_17" cx="0" cy="0" r="1" gradientUnits="userSpaceOnUse" gradientTransform="translate(511.36 256) rotate(180) scale(511.36 2045.44)">
<stop offset="0.25" stop-color="#0D0D0D"/>
<stop offset="0.49975" stop-color="#0D0D0D" stop-opacity="0.75"/>
<stop offset="0.75" stop-color="#0D0D0D"/>
</radialGradient>
<radialGradient id="paint13_radial_104_17" cx="0" cy="0" r="1" gradientUnits="userSpaceOnUse" gradientTransform="translate(511.36 256) rotate(180) scale(511.36 2045.44)">
<stop offset="0.25" stop-color="#0D0D0D"/>
<stop offset="0.49975" stop-color="#0D0D0D" stop-opacity="0.75"/>
<stop offset="0.75" stop-color="#0D0D0D"/>
</radialGradient>
<radialGradient id="paint14_radial_104_17" cx="0" cy="0" r="1" gradientUnits="userSpaceOnUse" gradientTransform="translate(511.36 256) rotate(180) scale(511.36 2045.44)">
<stop offset="0.25" stop-color="#0D0D0D"/>
<stop offset="0.49975" stop-color="#0D0D0D" stop-opacity="0.75"/>
<stop offset="0.75" stop-color="#0D0D0D"/>
</radialGradient>
<radialGradient id="paint15_radial_104_17" cx="0" cy="0" r="1" gradientUnits="userSpaceOnUse" gradientTransform="translate(511.36 256) rotate(180) scale(511.36 2045.44)">
<stop offset="0.25" stop-color="#0D0D0D"/>
<stop offset="0.49975" stop-color="#0D0D0D" stop-opacity="0.75"/>
<stop offset="0.75" stop-color="#0D0D0D"/>
</radialGradient>
<radialGradient id="paint16_radial_104_17" cx="0" cy="0" r="1" gradientUnits="userSpaceOnUse" gradientTransform="translate(511.36 256) rotate(180) scale(511.36 2045.44)">
<stop offset="0.25" stop-color="#0D0D0D"/>
<stop offset="0.49975" stop-color="#0D0D0D" stop-opacity="0.75"/>
<stop offset="0.75" stop-color="#0D0D0D"/>
</radialGradient>
<radialGradient id="paint17_radial_104_17" cx="0" cy="0" r="1" gradientUnits="userSpaceOnUse" gradientTransform="translate(511.36 256) rotate(180) scale(511.36 2045.44)">
<stop offset="0.25" stop-color="#0D0D0D"/>
<stop offset="0.49975" stop-color="#0D0D0D" stop-opacity="0.75"/>
<stop offset="0.75" stop-color="#0D0D0D"/>
</radialGradient>
<radialGradient id="paint18_radial_104_17" cx="0" cy="0" r="1" gradientUnits="userSpaceOnUse" gradientTransform="translate(511.36 256) rotate(180) scale(511.36 2045.44)">
<stop offset="0.25" stop-color="#0D0D0D"/>
<stop offset="0.49975" stop-color="#0D0D0D" stop-opacity="0.75"/>
<stop offset="0.75" stop-color="#0D0D0D"/>
</radialGradient>
<radialGradient id="paint19_radial_104_17" cx="0" cy="0" r="1" gradientUnits="userSpaceOnUse" gradientTransform="translate(511.36 256) rotate(180) scale(511.36 2045.44)">
<stop offset="0.25" stop-color="#0D0D0D"/>
<stop offset="0.49975" stop-color="#0D0D0D" stop-opacity="0.75"/>
<stop offset="0.75" stop-color="#0D0D0D"/>
</radialGradient>
<radialGradient id="paint20_radial_104_17" cx="0" cy="0" r="1" gradientUnits="userSpaceOnUse" gradientTransform="translate(511.36 256) rotate(180) scale(511.36 2045.44)">
<stop offset="0.25" stop-color="#0D0D0D"/>
<stop offset="0.49975" stop-color="#0D0D0D" stop-opacity="0.75"/>
<stop offset="0.75" stop-color="#0D0D0D"/>
</radialGradient>
<radialGradient id="paint21_radial_104_17" cx="0" cy="0" r="1" gradientUnits="userSpaceOnUse" gradientTransform="translate(511.36 256) rotate(180) scale(511.36 2045.44)">
<stop offset="0.25" stop-color="#0D0D0D"/>
<stop offset="0.49975" stop-color="#0D0D0D" stop-opacity="0.75"/>
<stop offset="0.75" stop-color="#0D0D0D"/>
</radialGradient>
<radialGradient id="paint22_radial_104_17" cx="0" cy="0" r="1" gradientUnits="userSpaceOnUse" gradientTransform="translate(511.36 256) rotate(180) scale(511.36 2045.44)">
<stop offset="0.25" stop-color="#0D0D0D"/>
<stop offset="0.49975" stop-color="#0D0D0D" stop-opacity="0.75"/>
<stop offset="0.75" stop-color="#0D0D0D"/>
</radialGradient>
<radialGradient id="paint23_radial_104_17" cx="0" cy="0" r="1" gradientUnits="userSpaceOnUse" gradientTransform="translate(511.36 256) rotate(180) scale(511.36 2045.44)">
<stop offset="0.25" stop-color="#0D0D0D"/>
<stop offset="0.49975" stop-color="#0D0D0D" stop-opacity="0.75"/>
<stop offset="0.75" stop-color="#0D0D0D"/>
</radialGradient>
<radialGradient id="paint24_radial_104_17" cx="0" cy="0" r="1" gradientUnits="userSpaceOnUse" gradientTransform="translate(511.36 256) rotate(180) scale(511.36 2045.44)">
<stop offset="0.25" stop-color="#0D0D0D"/>
<stop offset="0.49975" stop-color="#0D0D0D" stop-opacity="0.75"/>
<stop offset="0.75" stop-color="#0D0D0D"/>
</radialGradient>
<radialGradient id="paint25_radial_104_17" cx="0" cy="0" r="1" gradientUnits="userSpaceOnUse" gradientTransform="translate(511.36 256) rotate(180) scale(511.36 2045.44)">
<stop offset="0.25" stop-color="#0D0D0D"/>
<stop offset="0.49975" stop-color="#0D0D0D" stop-opacity="0.75"/>
<stop offset="0.75" stop-color="#0D0D0D"/>
</radialGradient>
<radialGradient id="paint26_radial_104_17" cx="0" cy="0" r="1" gradientUnits="userSpaceOnUse" gradientTransform="translate(511.36 256) rotate(180) scale(511.36 2045.44)">
<stop offset="0.25" stop-color="#0D0D0D"/>
<stop offset="0.49975" stop-color="#0D0D0D" stop-opacity="0.75"/>
<stop offset="0.75" stop-color="#0D0D0D"/>
</radialGradient>
<radialGradient id="paint27_radial_104_17" cx="0" cy="0" r="1" gradientUnits="userSpaceOnUse" gradientTransform="translate(511.36 256) rotate(180) scale(511.36 2045.44)">
<stop offset="0.25" stop-color="#0D0D0D"/>
<stop offset="0.49975" stop-color="#0D0D0D" stop-opacity="0.75"/>
<stop offset="0.75" stop-color="#0D0D0D"/>
</radialGradient>
<radialGradient id="paint28_radial_104_17" cx="0" cy="0" r="1" gradientUnits="userSpaceOnUse" gradientTransform="translate(511.36 256) rotate(180) scale(511.36 2045.44)">
<stop offset="0.25" stop-color="#0D0D0D"/>
<stop offset="0.49975" stop-color="#0D0D0D" stop-opacity="0.75"/>
<stop offset="0.75" stop-color="#0D0D0D"/>
</radialGradient>
<radialGradient id="paint29_radial_104_17" cx="0" cy="0" r="1" gradientUnits="userSpaceOnUse" gradientTransform="translate(511.36 256) rotate(180) scale(511.36 2045.44)">
<stop offset="0.25" stop-color="#0D0D0D"/>
<stop offset="0.49975" stop-color="#0D0D0D" stop-opacity="0.75"/>
<stop offset="0.75" stop-color="#0D0D0D"/>
</radialGradient>
<radialGradient id="paint30_radial_104_17" cx="0" cy="0" r="1" gradientUnits="userSpaceOnUse" gradientTransform="translate(511.36 256) rotate(180) scale(511.36 2045.44)">
<stop offset="0.25" stop-color="#0D0D0D"/>
<stop offset="0.49975" stop-color="#0D0D0D" stop-opacity="0.75"/>
<stop offset="0.75" stop-color="#0D0D0D"/>
</radialGradient>
<radialGradient id="paint31_radial_104_17" cx="0" cy="0" r="1" gradientUnits="userSpaceOnUse" gradientTransform="translate(511.36 256) rotate(180) scale(511.36 2045.44)">
<stop offset="0.25" stop-color="#0D0D0D"/>
<stop offset="0.49975" stop-color="#0D0D0D" stop-opacity="0.75"/>
<stop offset="0.75" stop-color="#0D0D0D"/>
</radialGradient>
<radialGradient id="paint32_radial_104_17" cx="0" cy="0" r="1" gradientUnits="userSpaceOnUse" gradientTransform="translate(511.36 256) rotate(180) scale(511.36 2045.44)">
<stop offset="0.25" stop-color="#0D0D0D"/>
<stop offset="0.49975" stop-color="#0D0D0D" stop-opacity="0.75"/>
<stop offset="0.75" stop-color="#0D0D0D"/>
</radialGradient>
<radialGradient id="paint33_radial_104_17" cx="0" cy="0" r="1" gradientUnits="userSpaceOnUse" gradientTransform="translate(511.36 256) rotate(180) scale(511.36 2045.44)">
<stop offset="0.25" stop-color="#0D0D0D"/>
<stop offset="0.49975" stop-color="#0D0D0D" stop-opacity="0.75"/>
<stop offset="0.75" stop-color="#0D0D0D"/>
</radialGradient>
<clipPath id="clip0_104_17">
<rect width="512" height="512" rx="256" fill="white"/>
</clipPath>
</defs>
</svg>
