<svg width="800" height="400" viewBox="0 0 800 400" xmlns="http://www.w3.org/2000/svg"><rect x="0" y="0" width="800" height="400" fill="white"/><clipPath id="satori_cp-id-0-0"><rect x="304" y="66" width="192" height="153"/></clipPath><mask id="satori_om-id-0-0"><rect x="304" y="66" width="192" height="153" fill="#fff"/></mask><image x="304" y="66" width="192" height="153" href="data:image/svg+xml;utf8,%3Csvg  version=%221.1%22 xmlns=%22http://www.w3.org/2000/svg%22 width=%22191.99999999999997%22 height=%22153.6%22 viewBox=%220 0 640 512%22%3E%3Cpath d=%22M464,464H224c-54.4,0-99.8-38.9-109.9-90.4c9,4.8,19.2,7.5,29.1,7.5c15.2,0,29.9-5.5,41.5-15.4l112.5-96.3 c47.1-39.5,106-61.3,166.8-61.3c70.7,0,128,57.3,128,128C592,406.7,534.7,464,464,464z%22 fill=%22%23FFFFFF%22%3E%3C/path%3E%3Cpath d=%22M590.7,214l48.8-192.3C642.2,11.6,633.9,0,622.6,0c-6,0-11.6,3.1-14.8,8.1l-99.3,157.7c-14.3-3.6-29.1-6.7-44.5-6.7 c-72.3,0-142.2,25.8-197.1,72.9l-112.5,96.4c-3.1,2.7-6.8,3.9-10.3,3.9c-8.3,0.9-16.1-5.6-16.1-15.2v-34.9l49.8-30.5 c8.8-5.9,14.2-15.9,14.2-27.5v-97c0-8.5-7.7-15.1-16.9-15.1c-3,0-6,0.8-8.8,2.7L96,162.1l-71.1-47.4c-2.8-1.8-5.8-2.7-8.8-2.7 c-8.3,0-16,6.6-16,16.1V225c0,10.7,5.4,20.7,14.2,26.6L64,282.1V352c0,88.4,71.6,160,160,160h240c97.2,0,176-78.8,176-176 C640,288.6,621.2,245.7,590.7,214z M102.9,241.2l-7.8,4.2L48,216v-28.2l48,32l48-32V216L102.9,241.2z M464,464H224 c-54.4,0-99.8-38.9-109.9-90.4c9,4.8,19.2,7.5,29.1,7.5c15.2,0,29.9-5.5,41.5-15.4l112.5-96.3c47.1-39.5,106-61.3,166.8-61.3 c70.7,0,128,57.3,128,128C592,406.7,534.7,464,464,464z M504,271.1c-13.2,0-24,10.7-24,24c0,13.2,10.8,24,24,24s24-10.8,24-24 C528,282.7,517.3,271.1,504,271.1z%22%3E%3C/path%3E%3Cpolygon points=%22102.9,241.2 95.1,245.4 48,216 48,187.8 96,219.8 144,187.8 144,216%22 fill=%22%23FFFFFF%22%3E%3C/polygon%3E%3C/svg%3E" preserveAspectRatio="none" clip-path="url(#satori_cp-id-0-0)" mask="url(#satori_om-id-0-0)"/><path fill="black" d="M259.3 250.5L250.4 250.5L250.4 245.5L274.3 245.5L274.3 250.5L265.4 250.5L265.4 274.5L259.3 274.5L259.3 250.5ZM284.2 261.9L284.2 261.9L284.2 274.5L278.1 274.5L278.1 245.5L284.0 245.5L284.0 256.6L284.3 256.6Q285.0 254.6 286.7 253.5Q288.3 252.4 290.8 252.4L290.8 252.4Q293.1 252.4 294.8 253.4Q296.5 254.4 297.4 256.3Q298.4 258.1 298.3 260.7L298.3 260.7L298.3 274.5L292.3 274.5L292.3 261.7Q292.3 259.7 291.3 258.6Q290.3 257.5 288.4 257.5L288.4 257.5Q287.2 257.5 286.2 258.0Q285.3 258.5 284.7 259.5Q284.2 260.5 284.2 261.9ZM313.1 275.0L313.1 275.0Q309.7 275.0 307.3 273.6Q304.9 272.2 303.5 269.7Q302.2 267.2 302.2 263.7L302.2 263.7Q302.2 260.4 303.5 257.8Q304.9 255.3 307.2 253.9Q309.6 252.4 312.8 252.4L312.8 252.4Q315.0 252.4 316.8 253.1Q318.7 253.8 320.1 255.2Q321.5 256.6 322.3 258.7Q323.1 260.7 323.1 263.5L323.1 263.5L323.1 265.2L304.7 265.2L304.7 261.4L317.4 261.4Q317.4 260.1 316.8 259.1Q316.2 258.1 315.2 257.5Q314.2 257.0 312.9 257.0L312.9 257.0Q311.5 257.0 310.5 257.6Q309.4 258.2 308.8 259.3Q308.2 260.3 308.2 261.6L308.2 261.6L308.2 265.2Q308.2 266.8 308.8 268.0Q309.4 269.2 310.5 269.8Q311.6 270.5 313.2 270.5L313.2 270.5Q314.2 270.5 315.0 270.2Q315.8 269.9 316.4 269.3Q317.0 268.7 317.4 267.9L317.4 267.9L322.9 268.3Q322.5 270.3 321.2 271.8Q319.9 273.3 317.8 274.1Q315.8 275.0 313.1 275.0Z M336.4 274.5L336.4 245.5L344 245.5L352.0 265.0L352.4 265.0L360.4 245.5L367.9 245.5L367.9 274.5L362.0 274.5L362.0 255.6L361.7 255.6L354.2 274.4L350.2 274.4L342.6 255.5L342.4 255.5L342.4 274.5L336.4 274.5ZM378.9 274.5L372.9 274.5L372.9 252.7L378.9 252.7L378.9 274.5ZM375.9 249.9L375.9 249.9Q374.6 249.9 373.6 249.0Q372.7 248.1 372.7 246.8L372.7 246.8Q372.7 245.6 373.6 244.7Q374.6 243.8 375.9 243.8L375.9 243.8Q377.3 243.8 378.2 244.7Q379.2 245.6 379.2 246.8L379.2 246.8Q379.2 248.1 378.2 249.0Q377.3 249.9 375.9 249.9ZM393.6 283.2L393.6 283.2Q390.7 283.2 388.6 282.4Q386.5 281.6 385.2 280.2Q384 278.8 383.6 277.1L383.6 277.1L389.2 276.3Q389.5 277.0 390.0 277.6Q390.6 278.1 391.5 278.5Q392.4 278.8 393.7 278.8L393.7 278.8Q395.7 278.8 397.0 277.9Q398.3 276.9 398.3 274.7L398.3 274.7L398.3 270.7L398.0 270.7Q397.6 271.6 396.8 272.4Q396.0 273.2 394.8 273.7Q393.5 274.2 391.8 274.2L391.8 274.2Q389.4 274.2 387.3 273.1Q385.3 271.9 384.1 269.6Q383.0 267.2 383.0 263.6L383.0 263.6Q383.0 259.9 384.2 257.4Q385.4 254.9 387.4 253.7Q389.4 252.4 391.8 252.4L391.8 252.4Q393.6 252.4 394.9 253.1Q396.1 253.7 396.9 254.6Q397.6 255.5 398.0 256.4L398.0 256.4L398.3 256.4L398.3 252.7L404.3 252.7L404.3 274.8Q404.3 277.5 402.9 279.4Q401.5 281.3 399.1 282.2Q396.7 283.2 393.6 283.2ZM393.7 269.7L393.7 269.7Q395.2 269.7 396.2 269.0Q397.2 268.2 397.8 266.9Q398.3 265.5 398.3 263.6L398.3 263.6Q398.3 261.6 397.8 260.2Q397.2 258.8 396.2 258.0Q395.2 257.3 393.7 257.3L393.7 257.3Q392.2 257.3 391.2 258.1Q390.2 258.9 389.7 260.3Q389.1 261.7 389.1 263.6L389.1 263.6Q389.1 265.5 389.7 266.8Q390.2 268.2 391.2 268.9Q392.2 269.7 393.7 269.7ZM415.2 274.5L409.1 274.5L409.1 252.7L415.0 252.7L415.0 256.5L415.2 256.5Q415.8 254.5 417.2 253.5Q418.6 252.4 420.4 252.4L420.4 252.4Q420.9 252.4 421.4 252.5Q421.9 252.5 422.3 252.6L422.3 252.6L422.3 258.0Q421.9 257.9 421.2 257.8Q420.4 257.7 419.8 257.7L419.8 257.7Q418.4 257.7 417.4 258.2Q416.4 258.8 415.8 259.8Q415.2 260.9 415.2 262.2L415.2 262.2L415.2 274.5ZM431.1 275.0L431.1 275.0Q429.0 275.0 427.3 274.2Q425.7 273.5 424.8 272.0Q423.8 270.6 423.8 268.4L423.8 268.4Q423.8 266.6 424.5 265.4Q425.2 264.2 426.3 263.4Q427.5 262.7 428.9 262.3Q430.4 261.9 432.0 261.7L432.0 261.7Q433.9 261.5 435.1 261.4Q436.2 261.2 436.8 260.8Q437.3 260.5 437.3 259.8L437.3 259.8L437.3 259.7Q437.3 258.3 436.5 257.6Q435.6 256.9 434.1 256.9L434.1 256.9Q432.4 256.9 431.5 257.6Q430.5 258.3 430.2 259.4L430.2 259.4L424.6 258.9Q425.0 256.9 426.3 255.5Q427.5 254.0 429.5 253.2Q431.5 252.4 434.1 252.4L434.1 252.4Q435.9 252.4 437.6 252.9Q439.2 253.3 440.5 254.2Q441.8 255.1 442.6 256.5Q443.3 257.9 443.3 259.8L443.3 259.8L443.3 274.5L437.6 274.5L437.6 271.5L437.4 271.5Q436.9 272.5 436.0 273.3Q435.2 274.1 433.9 274.5Q432.7 275.0 431.1 275.0ZM432.8 270.8L432.8 270.8Q434.1 270.8 435.2 270.2Q436.2 269.7 436.8 268.8Q437.3 267.9 437.3 266.7L437.3 266.7L437.3 264.4Q437.1 264.6 436.6 264.8Q436.1 264.9 435.5 265.0Q434.9 265.2 434.2 265.2Q433.6 265.3 433.1 265.4L433.1 265.4Q432.1 265.6 431.3 265.9Q430.5 266.2 430.0 266.8Q429.6 267.4 429.6 268.2L429.6 268.2Q429.6 269.5 430.5 270.1Q431.4 270.8 432.8 270.8ZM446.5 252.7L459.7 252.7L459.7 257.3L446.5 257.3L446.5 252.7ZM449.5 268.6L449.5 247.5L455.5 247.5L455.5 267.8Q455.5 268.7 455.8 269.1Q456.1 269.6 456.5 269.8Q457.0 270.0 457.6 270.0L457.6 270.0Q458.0 270.0 458.4 269.9Q458.9 269.8 459.1 269.8L459.1 269.8L460.1 274.3Q459.6 274.4 458.8 274.6Q457.9 274.8 456.8 274.8L456.8 274.8Q454.6 274.9 452.9 274.3Q451.3 273.6 450.4 272.2Q449.5 270.8 449.5 268.6L449.5 268.6ZM473.2 275.0L473.2 275.0Q469.9 275.0 467.5 273.6Q465.1 272.1 463.8 269.6Q462.5 267.1 462.5 263.7L462.5 263.7Q462.5 260.3 463.8 257.8Q465.1 255.3 467.5 253.9Q469.9 252.4 473.2 252.4L473.2 252.4Q476.5 252.4 478.9 253.9Q481.3 255.3 482.7 257.8Q484.0 260.3 484.0 263.7L484.0 263.7Q484.0 267.1 482.7 269.6Q481.3 272.1 478.9 273.6Q476.5 275.0 473.2 275.0ZM473.2 270.3L473.2 270.3Q474.8 270.3 475.8 269.4Q476.8 268.6 477.3 267.1Q477.8 265.6 477.8 263.7L477.8 263.7Q477.8 261.8 477.3 260.3Q476.8 258.8 475.8 257.9Q474.8 257.1 473.2 257.1L473.2 257.1Q471.7 257.1 470.7 257.9Q469.7 258.8 469.1 260.3Q468.6 261.8 468.6 263.7L468.6 263.7Q468.6 265.6 469.1 267.1Q469.7 268.6 470.7 269.4Q471.7 270.3 473.2 270.3ZM497.8 275.0L497.8 275.0Q494.5 275.0 492.0 273.6Q489.6 272.1 488.3 269.6Q487.0 267.1 487.0 263.7L487.0 263.7Q487.0 260.3 488.3 257.8Q489.6 255.3 492.0 253.9Q494.5 252.4 497.8 252.4L497.8 252.4Q501.1 252.4 503.5 253.9Q505.9 255.3 507.2 257.8Q508.5 260.3 508.5 263.7L508.5 263.7Q508.5 267.1 507.2 269.6Q505.9 272.1 503.5 273.6Q501.1 275.0 497.8 275.0ZM497.8 270.3L497.8 270.3Q499.3 270.3 500.3 269.4Q501.3 268.6 501.8 267.1Q502.4 265.6 502.4 263.7L502.4 263.7Q502.4 261.8 501.8 260.3Q501.3 258.8 500.3 257.9Q499.3 257.1 497.8 257.1L497.8 257.1Q496.3 257.1 495.2 257.9Q494.2 258.8 493.7 260.3Q493.2 261.8 493.2 263.7L493.2 263.7Q493.2 265.6 493.7 267.1Q494.2 268.6 495.2 269.4Q496.3 270.3 497.8 270.3ZM522.3 275.0L522.3 275.0Q519 275.0 516.6 273.6Q514.2 272.1 512.9 269.6Q511.6 267.1 511.6 263.7L511.6 263.7Q511.6 260.3 512.9 257.8Q514.2 255.3 516.6 253.9Q519 252.4 522.3 252.4L522.3 252.4Q525.6 252.4 528.0 253.9Q530.4 255.3 531.7 257.8Q533.0 260.3 533.0 263.7L533.0 263.7Q533.0 267.1 531.7 269.6Q530.4 272.1 528.0 273.6Q525.6 275.0 522.3 275.0ZM522.3 270.3L522.3 270.3Q523.8 270.3 524.9 269.4Q525.9 268.6 526.4 267.1Q526.9 265.6 526.9 263.7L526.9 263.7Q526.9 261.8 526.4 260.3Q525.9 258.8 524.9 257.9Q523.8 257.1 522.3 257.1L522.3 257.1Q520.8 257.1 519.8 257.9Q518.8 258.8 518.2 260.3Q517.7 261.8 517.7 263.7L517.7 263.7Q517.7 265.6 518.2 267.1Q518.8 268.6 519.8 269.4Q520.8 270.3 522.3 270.3ZM543.0 274.5L537.0 274.5L537.0 252.7L542.9 252.7L542.9 256.5L543.1 256.5Q543.7 254.5 545.1 253.5Q546.5 252.4 548.3 252.4L548.3 252.4Q548.8 252.4 549.3 252.5Q549.8 252.5 550.2 252.6L550.2 252.6L550.2 258.0Q549.8 257.9 549.1 257.8Q548.3 257.7 547.7 257.7L547.7 257.7Q546.3 257.7 545.3 258.2Q544.3 258.8 543.7 259.8Q543.0 260.9 543.0 262.2L543.0 262.2L543.0 274.5Z "/></svg>